<?xml version="1.0" encoding="UTF-8"?>
<svg xmlns="http://www.w3.org/2000/svg" viewBox="0 0 100 100" width="100px" height="100px">
<g id="surface7848376">
<path style=" stroke:none;fill-rule:nonzero;fill:rgb(23.921569%,12.54902%,4.705882%);fill-opacity:1;" d="M 50 4 C 24.617188 4 4 24.617188 4 50 C 4 75.382812 24.617188 96 50 96 C 75.382812 96 96 75.382812 96 50 C 96 24.617188 75.382812 4 50 4 Z M 50 8 C 73.21875 8 92 26.78125 92 50 C 92 73.21875 73.21875 92 50 92 C 26.78125 92 8 73.21875 8 50 C 8 26.78125 26.78125 8 50 8 Z M 49.96875 13.972656 C 48.867188 13.988281 47.984375 14.898438 48 16 L 48 44.347656 C 45.605469 45.195312 44 47.457031 44 50 C 44 50.894531 44.203125 51.777344 44.589844 52.582031 L 32.585938 64.585938 C 32.0625 65.085938 31.851562 65.832031 32.035156 66.535156 C 32.21875 67.234375 32.765625 67.78125 33.464844 67.964844 C 34.167969 68.148438 34.914062 67.9375 35.414062 67.414062 L 47.417969 55.410156 C 48.222656 55.796875 49.105469 56 50 56 C 53.3125 56 56 53.3125 56 50 C 55.996094 47.460938 54.394531 45.199219 52 44.351562 L 52 16 C 52.007812 15.460938 51.796875 14.9375 51.414062 14.558594 C 51.03125 14.175781 50.507812 13.964844 49.96875 13.972656 Z M 49.96875 13.972656 "/>
</g>
</svg>
