<?xml version="1.0" encoding="UTF-8"?>
<svg xmlns="http://www.w3.org/2000/svg" xmlns:xlink="http://www.w3.org/1999/xlink" width="96pt" height="96pt" viewBox="0 0 96 96" version="1.1">
<g id="surface37795696">
<path style="fill-rule:nonzero;fill:rgb(0%,0%,0%);fill-opacity:1;stroke-width:1;stroke-linecap:butt;stroke-linejoin:round;stroke:rgb(80.000001%,80.000001%,80.000001%);stroke-opacity:1;stroke-miterlimit:10;" d="M 19.484206 39.262216 L 31.834021 39.297421 L 31.841061 39.297421 C 37.121769 39.311502 41.90257 42.72636 43.564232 47.781757 L 43.564232 47.788798 C 46.415814 56.442118 55.843638 75.832876 64.525121 84.993144 L 64.44063 62.497329 L 64.44063 62.490288 C 64.44063 61.314451 64.060419 60.173818 63.335202 59.21625 L 63.328161 59.202168 L 59.117676 53.562372 C 54.956479 47.992986 59.265536 39.410076 66.214947 39.417117 L 88.041872 39.452321 C 94.751891 39.466403 100.335359 45.014667 100.335359 51.738768 L 100.335359 78.712622 C 106.425775 73.453037 115.072054 66.151579 124.774474 46.274996 C 126.837471 42.050429 131.885827 39.410076 137.307353 39.410076 L 149.769823 39.410076 C 157.648639 39.410076 163.232107 47.64798 160.521344 54.977602 C 156.930463 64.66594 148.833378 79.282938 136.624382 92.695936 C 143.285114 98.596246 156.620661 110.410949 163.302517 122.366471 C 167.555247 129.977731 161.739427 139.799847 153.043862 139.792806 L 135.575281 139.792806 C 131.209896 139.792806 127.112067 137.483377 124.908252 133.660145 L 124.908252 133.653104 C 122.957911 130.26641 118.909368 124.161912 114.339796 119.226211 C 109.763183 114.283468 104.552884 111.108003 102.018145 111.108003 C 101.954776 111.108003 101.849162 111.115044 101.722425 111.115044 C 101.01129 111.136167 100.398728 111.783933 100.398728 112.685174 L 100.398728 127.189518 C 100.398728 134.44873 94.061879 140.440573 86.711134 139.694233 C 64.644817 137.455213 47.380424 126.154499 34.622234 110.572891 C 21.864045 94.991283 13.309298 75.163987 7.542766 54.928315 C 5.331909 47.162154 11.443448 39.262216 19.477165 39.262216 Z M 17.878871 51.97816 C 23.384888 71.291468 31.53126 89.830272 42.937588 103.764299 C 54.343917 117.691285 68.721523 127.062781 87.795439 128.99904 C 88.788212 129.097613 89.647207 128.301987 89.647207 127.189518 L 89.647207 112.685174 C 89.647207 106.214547 94.751891 100.553629 101.419665 100.370564 L 101.440787 100.370564 C 101.588647 100.363523 101.785794 100.363523 102.018145 100.363523 C 110.396868 100.363523 116.825249 106.094851 122.225653 111.917711 C 127.626056 117.740572 131.892868 124.246403 134.22342 128.294946 C 134.483935 128.745566 134.976801 129.041286 135.575281 129.041286 L 153.050903 129.041286 C 154.029594 129.041286 154.388682 128.456888 153.916939 127.604933 C 148.734805 118.339052 134.983842 105.552698 128.682198 99.983312 C 124.66886 96.427636 124.521 90.097828 128.076677 86.267554 C 139.609742 73.840289 147.389984 59.476765 150.438713 51.245902 C 150.71331 50.506603 150.495041 50.161596 149.769823 50.161596 L 137.307353 50.161596 C 134.462812 50.161596 134.674041 50.492521 134.427608 50.992428 C 123.957725 72.453223 113.241409 81.789514 107.186197 87.020935 L 107.179156 87.020935 C 100.567711 92.724099 89.583839 87.710948 89.583839 78.987219 L 89.583839 51.738768 C 89.583839 50.816404 88.964236 50.203842 88.020749 50.203842 L 70.002975 50.175678 L 71.925153 52.745623 L 71.932193 52.759704 C 74.044477 55.562 75.19215 58.976858 75.19215 62.490288 L 75.283683 86.619602 L 75.283683 86.626642 C 75.283683 90.928659 72.453223 94.58995 68.974997 95.998138 C 65.496771 97.413368 61.004649 96.807847 57.94888 93.829528 C 46.176422 82.366872 36.889418 61.884767 33.354864 51.140287 C 33.129554 50.457316 32.57332 50.048941 31.812898 50.048941 L 19.477165 50.013737 C 18.237959 50.013737 17.57611 50.900895 17.878871 51.97816 Z M 17.878871 51.97816 " transform="matrix(0.554791,0,0,0.554791,0.288,0.288)"/>
<path style=" stroke:none;fill-rule:nonzero;fill:rgb(0%,0%,0%);fill-opacity:1;" d="M 11.09375 22.070312 C 6.636719 22.070312 3.246094 26.453125 4.472656 30.761719 C 7.671875 41.988281 12.417969 52.988281 19.496094 61.632812 C 26.574219 70.277344 36.152344 76.546875 48.394531 77.789062 C 52.472656 78.203125 55.988281 74.878906 55.988281 70.851562 L 55.988281 62.804688 C 55.988281 62.304688 56.328125 61.945312 56.722656 61.933594 C 56.792969 61.933594 56.851562 61.929688 56.886719 61.929688 C 58.292969 61.929688 61.183594 63.691406 63.722656 66.433594 C 66.257812 69.171875 68.503906 72.558594 69.585938 74.4375 L 69.585938 74.441406 C 70.808594 76.5625 73.082031 77.84375 75.503906 77.84375 L 85.195312 77.84375 C 90.019531 77.847656 93.246094 72.398438 90.886719 68.175781 C 87.179688 61.542969 79.78125 54.988281 76.085938 51.714844 C 82.859375 44.273438 87.351562 36.164062 89.34375 30.789062 C 90.847656 26.722656 87.75 22.152344 83.378906 22.152344 L 76.464844 22.152344 C 73.457031 22.152344 70.65625 23.617188 69.511719 25.960938 C 64.128906 36.988281 59.332031 41.039062 55.953125 43.957031 L 55.953125 28.992188 C 55.953125 25.261719 52.855469 22.183594 49.132812 22.175781 L 37.023438 22.15625 C 33.167969 22.152344 30.777344 26.914062 33.085938 30.003906 L 35.421875 33.132812 L 35.425781 33.140625 C 35.828125 33.671875 36.039062 34.304688 36.039062 34.957031 L 36.039062 34.960938 L 36.085938 47.441406 C 31.269531 42.359375 26.039062 31.601562 24.457031 26.800781 L 24.457031 26.796875 C 23.535156 23.992188 20.882812 22.097656 17.953125 22.089844 L 17.949219 22.089844 L 11.097656 22.070312 Z M 11.09375 28.035156 L 17.9375 28.054688 C 18.359375 28.054688 18.667969 28.28125 18.792969 28.660156 C 20.753906 34.621094 25.90625 45.984375 32.4375 52.34375 C 34.132812 53.996094 36.625 54.332031 38.554688 53.546875 C 40.484375 52.765625 42.054688 50.734375 42.054688 48.347656 L 42.054688 48.34375 L 42.003906 34.957031 C 42.003906 33.007812 41.367188 31.113281 40.195312 29.554688 L 40.191406 29.550781 L 39.125 28.125 L 49.121094 28.140625 C 49.644531 28.140625 49.988281 28.480469 49.988281 28.992188 L 49.988281 44.109375 C 49.988281 48.949219 56.082031 51.730469 59.75 48.566406 L 59.753906 48.566406 C 63.113281 45.664062 69.058594 40.484375 74.867188 28.578125 C 75.003906 28.300781 74.886719 28.117188 76.464844 28.117188 L 83.378906 28.117188 C 83.78125 28.117188 83.902344 28.308594 83.75 28.71875 C 82.058594 33.285156 77.742188 41.253906 71.34375 48.148438 C 69.371094 50.273438 69.453125 53.785156 71.679688 55.757812 C 75.175781 58.847656 82.804688 65.941406 85.679688 71.082031 C 85.941406 71.554688 85.742188 71.878906 85.199219 71.878906 L 75.503906 71.878906 C 75.171875 71.878906 74.898438 71.714844 74.753906 71.464844 C 73.460938 69.21875 71.09375 65.609375 68.097656 62.378906 C 65.101562 59.148438 61.535156 55.96875 56.886719 55.96875 C 56.757812 55.96875 56.648438 55.96875 56.566406 55.972656 L 56.554688 55.972656 C 52.855469 56.074219 50.023438 59.214844 50.023438 62.804688 L 50.023438 70.851562 C 50.023438 71.46875 49.546875 71.910156 48.996094 71.855469 C 38.414062 70.78125 30.4375 65.582031 24.109375 57.855469 C 17.78125 50.125 13.261719 39.839844 10.207031 29.125 C 10.039062 28.527344 10.40625 28.035156 11.09375 28.035156 Z M 11.09375 28.035156 "/>
</g>
</svg>
