<?xml version="1.0" encoding="UTF-8"?>
<svg xmlns="http://www.w3.org/2000/svg" xmlns:xlink="http://www.w3.org/1999/xlink" width="100pt" height="100pt" viewBox="0 0 100 100" version="1.1">
<g id="surface41432419">
<path style=" stroke:none;fill-rule:nonzero;fill:rgb(23.921569%,12.54902%,4.705882%);fill-opacity:1;" d="M 26 6 C 14.976562 6 6 14.976562 6 26 L 6 74 C 6 85.023438 14.976562 94 26 94 L 74 94 C 85.023438 94 94 85.023438 94 74 L 94 26 C 94 14.976562 85.023438 6 74 6 Z M 26 10 L 74 10 C 82.863281 10 90 17.136719 90 26 L 90 74 C 90 82.863281 82.863281 90 74 90 L 26 90 C 17.136719 90 10 82.863281 10 74 L 10 26 C 10 17.136719 17.136719 10 26 10 Z M 61.386719 28 C 54.183594 28 48.308594 33.898438 48.308594 41.109375 C 48.308594 41.160156 48.328125 41.210938 48.328125 41.261719 C 40.699219 40.246094 33.949219 36.46875 29.3125 30.769531 C 28.898438 30.261719 28.257812 29.984375 27.605469 30.039062 C 26.949219 30.089844 26.359375 30.460938 26.03125 31.027344 C 24.90625 32.96875 24.265625 35.226562 24.265625 37.617188 C 24.265625 39.746094 24.855469 41.730469 25.761719 43.515625 C 24.835938 43.710938 24.175781 44.527344 24.175781 45.472656 L 24.175781 45.613281 C 24.175781 49.492188 25.984375 52.847656 28.667969 55.253906 C 28.117188 55.785156 27.914062 56.582031 28.148438 57.308594 C 29.265625 60.792969 31.867188 63.523438 35.128906 65.058594 C 32.519531 66.28125 29.726562 67.160156 26.644531 67.160156 C 25.824219 67.160156 25.023438 67.117188 24.242188 67.023438 C 23.316406 66.910156 22.433594 67.453125 22.117188 68.328125 C 21.800781 69.207031 22.132812 70.1875 22.917969 70.691406 C 28.125 74.042969 34.332031 76 40.980469 76 C 51.722656 76 60.210938 71.476562 65.886719 65.023438 C 71.5625 58.570312 74.507812 50.242188 74.507812 42.398438 C 74.507812 42.160156 74.496094 41.933594 74.492188 41.699219 C 76.441406 40.132812 78.273438 38.402344 79.664062 36.316406 C 80.128906 35.613281 80.101562 34.691406 79.597656 34.015625 C 79.09375 33.339844 78.21875 33.054688 77.410156 33.300781 C 77.738281 32.667969 78.195312 32.113281 78.414062 31.421875 C 78.667969 30.628906 78.40625 29.761719 77.753906 29.246094 C 77.101562 28.726562 76.199219 28.667969 75.484375 29.09375 C 73.738281 30.132812 71.777344 30.820312 69.742188 31.296875 C 67.457031 29.34375 64.613281 28 61.386719 28 Z M 61.386719 32 C 64.007812 32 66.355469 33.101562 68.011719 34.875 C 68.484375 35.378906 69.183594 35.601562 69.859375 35.46875 C 70.167969 35.40625 70.417969 35.210938 70.722656 35.136719 C 70.675781 35.164062 70.652344 35.214844 70.605469 35.242188 C 69.828125 35.707031 69.460938 36.636719 69.710938 37.507812 C 69.960938 38.378906 70.765625 38.972656 71.671875 38.957031 C 71.53125 39.066406 71.449219 39.234375 71.304688 39.339844 C 70.761719 39.734375 70.449219 40.371094 70.476562 41.042969 C 70.496094 41.492188 70.507812 41.949219 70.507812 42.398438 C 70.507812 49.230469 67.878906 56.703125 62.886719 62.382812 C 57.894531 68.0625 50.617188 72 40.980469 72 C 37.667969 72 34.550781 71.332031 31.582031 70.320312 C 35.277344 69.539062 38.773438 68.234375 41.636719 65.980469 C 42.300781 65.457031 42.5625 64.574219 42.292969 63.773438 C 42.023438 62.972656 41.28125 62.425781 40.4375 62.410156 C 37.605469 62.359375 35.417969 60.753906 33.789062 58.675781 C 34.390625 58.597656 35.015625 58.59375 35.589844 58.433594 C 36.484375 58.1875 37.09375 57.359375 37.058594 56.433594 C 37.027344 55.507812 36.363281 54.722656 35.453125 54.542969 C 32.148438 53.875 29.570312 51.386719 28.625 48.167969 C 29.476562 48.375 30.222656 48.835938 31.128906 48.863281 C 32.019531 48.890625 32.820312 48.324219 33.09375 47.476562 C 33.367188 46.625 33.046875 45.699219 32.304688 45.203125 C 29.867188 43.570312 28.265625 40.792969 28.265625 37.617188 C 28.265625 36.960938 28.617188 36.441406 28.746094 35.828125 C 34.425781 41.464844 41.984375 45.207031 50.496094 45.636719 C 51.125 45.667969 51.730469 45.402344 52.132812 44.917969 C 52.535156 44.4375 52.6875 43.792969 52.542969 43.179688 C 52.386719 42.519531 52.308594 41.828125 52.308594 41.109375 C 52.308594 36.054688 56.351562 32 61.386719 32 Z M 61.386719 32 "/>
</g>
</svg>
