<?xml version="1.0" encoding="UTF-8"?>
<svg xmlns="http://www.w3.org/2000/svg" xmlns:xlink="http://www.w3.org/1999/xlink" width="100pt" height="100pt" viewBox="0 0 100 100" version="1.1">
<g id="surface36769644">
<path style=" stroke:none;fill-rule:nonzero;fill:rgb(23.921569%,12.54902%,4.705882%);fill-opacity:1;" d="M 16.078125 5.480469 C 10.25 5.480469 5.480469 10.25 5.480469 16.078125 L 5.480469 83.921875 C 5.480469 89.75 10.25 94.519531 16.078125 94.519531 L 83.921875 94.519531 C 89.75 94.519531 94.519531 89.75 94.519531 83.921875 L 94.519531 16.078125 C 94.519531 10.25 89.75 5.480469 83.921875 5.480469 Z M 16.078125 9.71875 L 83.921875 9.71875 C 87.457031 9.71875 90.28125 12.542969 90.28125 16.078125 L 90.28125 83.921875 C 90.28125 87.457031 87.457031 90.28125 83.921875 90.28125 L 16.078125 90.28125 C 12.542969 90.28125 9.71875 87.457031 9.71875 83.921875 L 9.71875 16.078125 C 9.71875 12.542969 12.542969 9.71875 16.078125 9.71875 Z M 46.601562 30.902344 C 44.359375 30.898438 42.359375 31.023438 40.570312 31.902344 C 40.570312 31.902344 40.570312 31.902344 40.566406 31.90625 C 39.695312 32.335938 39.082031 32.878906 38.59375 33.527344 C 38.347656 33.851562 38.097656 34.144531 37.964844 34.882812 C 37.894531 35.253906 37.859375 35.851562 38.246094 36.496094 C 38.632812 37.144531 39.40625 37.511719 39.90625 37.578125 C 40.25 37.625 41.03125 37.957031 41.101562 38.054688 C 41.101562 38.058594 41.105469 38.058594 41.105469 38.0625 C 41.105469 38.0625 41.40625 38.851562 41.496094 39.554688 C 41.582031 40.253906 41.578125 40.824219 41.578125 40.824219 C 41.578125 40.882812 41.578125 40.9375 41.582031 40.992188 C 41.582031 40.992188 41.703125 42.832031 41.625 44.734375 C 41.589844 45.492188 41.492188 46.164062 41.390625 46.765625 C 40.636719 45.933594 39.523438 44.421875 37.917969 41.640625 C 36.136719 38.550781 34.71875 35.78125 34.71875 35.78125 C 34.640625 35.539062 34.378906 34.789062 33.351562 34.035156 C 32.226562 33.207031 31.140625 33.082031 31.140625 33.082031 C 31.003906 33.054688 30.863281 33.039062 30.726562 33.039062 L 22.371094 33.042969 C 22.371094 33.042969 21.867188 33.015625 21.269531 33.097656 C 20.667969 33.179688 19.765625 33.25 18.890625 34.28125 C 18.890625 34.285156 18.890625 34.285156 18.886719 34.285156 C 18.109375 35.21875 18.15625 36.246094 18.25 36.828125 C 18.34375 37.410156 18.554688 37.851562 18.554688 37.851562 C 18.558594 37.859375 18.5625 37.867188 18.570312 37.875 C 18.570312 37.875 25.402344 52.246094 33.125 60.707031 C 38.734375 66.851562 44.492188 66.957031 49.242188 66.957031 L 52.785156 66.957031 C 53.691406 66.957031 54.511719 66.921875 55.414062 66.394531 C 56.320312 65.863281 56.929688 64.582031 56.929688 63.6875 C 56.929688 62.753906 57.070312 62.019531 57.242188 61.644531 C 57.363281 61.378906 57.457031 61.28125 57.605469 61.203125 C 57.636719 61.222656 57.617188 61.210938 57.707031 61.273438 C 58.058594 61.523438 58.640625 62.089844 59.273438 62.792969 C 60.542969 64.207031 61.980469 66.140625 63.914062 67.46875 C 65.296875 68.421875 66.605469 68.84375 67.597656 68.996094 C 68.21875 69.09375 68.703125 69.074219 69.046875 69.046875 L 76.964844 69.078125 C 77.011719 69.082031 77.058594 69.078125 77.105469 69.074219 C 77.105469 69.074219 78.46875 69.089844 79.886719 68.242188 C 80.597656 67.820312 81.433594 67.015625 81.703125 65.84375 C 81.976562 64.667969 81.636719 63.453125 80.96875 62.34375 C 80.96875 62.34375 80.96875 62.339844 80.96875 62.339844 C 81.082031 62.53125 80.863281 62.136719 80.636719 61.769531 C 80.410156 61.398438 80.082031 60.902344 79.609375 60.285156 C 78.664062 59.050781 77.15625 57.328125 74.710938 55.050781 C 74.710938 55.050781 74.707031 55.050781 74.707031 55.050781 C 73.464844 53.898438 72.628906 53.078125 72.285156 52.625 C 71.941406 52.171875 72.054688 52.410156 72.078125 52.292969 C 72.125 52.0625 73.613281 49.914062 76.644531 45.867188 C 78.488281 43.40625 79.78125 41.554688 80.632812 40.015625 C 81.484375 38.480469 82.101562 37.148438 81.671875 35.515625 C 81.671875 35.511719 81.667969 35.511719 81.667969 35.507812 C 81.476562 34.792969 80.957031 34.132812 80.425781 33.773438 C 79.890625 33.414062 79.386719 33.273438 78.933594 33.183594 C 78.03125 33.007812 77.242188 33.039062 76.507812 33.039062 C 74.972656 33.039062 68.15625 33.09375 67.59375 33.09375 C 66.929688 33.09375 65.835938 33.394531 65.347656 33.6875 C 64.128906 34.417969 63.78125 35.382812 63.78125 35.382812 C 63.757812 35.425781 63.738281 35.464844 63.71875 35.507812 C 63.71875 35.507812 62.3125 38.625 60.5 41.707031 C 58.664062 44.832031 57.3125 46.320312 56.492188 47.011719 C 56.46875 46.886719 56.472656 46.988281 56.460938 46.816406 C 56.386719 45.945312 56.46875 44.738281 56.46875 43.5625 C 56.46875 40.394531 56.734375 38.175781 56.59375 36.214844 C 56.519531 35.234375 56.339844 34.226562 55.691406 33.296875 C 55.046875 32.367188 53.976562 31.765625 52.914062 31.507812 C 52.277344 31.355469 51.554688 30.957031 48.925781 30.929688 C 48.925781 30.929688 48.925781 30.929688 48.921875 30.929688 C 48.121094 30.921875 47.347656 30.90625 46.601562 30.902344 Z M 48.882812 35.167969 C 51.207031 35.191406 50.625 35.320312 51.917969 35.632812 C 52.316406 35.730469 52.21875 35.726562 52.210938 35.714844 C 52.203125 35.703125 52.320312 35.921875 52.363281 36.53125 C 52.453125 37.75 52.226562 40.179688 52.226562 43.5625 C 52.226562 44.484375 52.117188 45.800781 52.230469 47.171875 C 52.347656 48.542969 52.6875 50.304688 54.328125 51.367188 C 55.105469 51.871094 56.007812 51.902344 56.777344 51.710938 C 57.550781 51.519531 58.25 51.117188 58.984375 50.53125 C 60.457031 49.351562 62.09375 47.367188 64.15625 43.855469 C 66.082031 40.578125 67.484375 37.457031 67.53125 37.355469 C 67.539062 37.347656 67.550781 37.34375 67.558594 37.332031 C 67.585938 37.335938 67.558594 37.332031 67.59375 37.332031 C 68.386719 37.332031 75.078125 37.28125 76.507812 37.28125 C 76.84375 37.28125 76.964844 37.300781 77.230469 37.308594 C 77.15625 37.550781 77.238281 37.394531 76.921875 37.964844 C 76.261719 39.152344 75.046875 40.921875 73.25 43.324219 C 70.296875 47.269531 68.464844 48.816406 67.925781 51.4375 C 67.65625 52.746094 68.160156 54.199219 68.902344 55.179688 C 69.644531 56.160156 70.578125 57 71.820312 58.15625 C 74.121094 60.296875 75.46875 61.851562 76.242188 62.863281 C 76.628906 63.371094 76.875 63.734375 77.027344 63.984375 C 77.175781 64.230469 77.140625 64.203125 77.335938 64.53125 C 77.464844 64.746094 77.417969 64.613281 77.441406 64.679688 C 77.1875 64.75 76.878906 64.835938 76.859375 64.839844 L 69.0625 64.808594 C 68.921875 64.808594 68.78125 64.820312 68.644531 64.847656 C 68.644531 64.847656 68.664062 64.871094 68.246094 64.808594 C 67.832031 64.742188 67.167969 64.5625 66.3125 63.972656 C 65.285156 63.265625 63.84375 61.535156 62.429688 59.960938 C 61.722656 59.175781 61.019531 58.421875 60.144531 57.804688 C 59.269531 57.191406 57.960938 56.609375 56.546875 57.054688 C 55.078125 57.515625 53.9375 58.660156 53.378906 59.890625 C 52.964844 60.808594 52.929688 61.765625 52.867188 62.714844 C 52.796875 62.722656 52.875 62.714844 52.785156 62.714844 L 49.242188 62.714844 C 44.425781 62.714844 41.007812 63.050781 36.257812 57.847656 C 29.867188 50.847656 24.015625 39.203125 23.0625 37.285156 L 30.414062 37.28125 C 30.542969 37.328125 30.820312 37.433594 30.835938 37.445312 C 30.839844 37.449219 30.84375 37.449219 30.84375 37.453125 C 30.578125 37.257812 30.859375 37.53125 30.859375 37.53125 C 30.882812 37.597656 30.914062 37.660156 30.945312 37.71875 C 30.945312 37.71875 32.402344 40.566406 34.246094 43.761719 C 36.050781 46.890625 37.371094 48.847656 38.640625 50.140625 C 39.277344 50.789062 39.921875 51.304688 40.777344 51.597656 C 41.636719 51.890625 42.746094 51.785156 43.492188 51.375 C 45.015625 50.539062 45.21875 49.3125 45.464844 48.234375 C 45.714844 47.160156 45.8125 46.011719 45.859375 44.914062 C 45.949219 42.785156 45.820312 40.941406 45.8125 40.828125 C 45.8125 40.789062 45.824219 40.019531 45.703125 39.035156 C 45.578125 38.027344 45.4375 36.796875 44.527344 35.554688 L 44.523438 35.550781 C 44.515625 35.539062 44.507812 35.542969 44.5 35.53125 C 45.707031 35.359375 46.738281 35.148438 48.882812 35.167969 Z M 67.585938 37.246094 L 67.554688 37.3125 C 67.550781 37.316406 67.554688 37.308594 67.546875 37.3125 C 67.558594 37.296875 67.585938 37.246094 67.585938 37.246094 Z M 67.585938 37.246094 "/>
</g>
</svg>
