<?xml version="1.0" encoding="UTF-8"?>
<svg xmlns="http://www.w3.org/2000/svg" xmlns:xlink="http://www.w3.org/1999/xlink" width="100pt" height="100pt" viewBox="0 0 100 100" version="1.1">
<g id="surface41466673">
<path style=" stroke:none;fill-rule:nonzero;fill:rgb(23.921569%,12.54902%,4.705882%);fill-opacity:1;" d="M 18 8 C 12.5 8 8 12.5 8 18 L 8 82 C 8 87.5 12.5 92 18 92 L 82 92 C 87.5 92 92 87.5 92 82 L 92 18 C 92 12.5 87.5 8 82 8 Z M 18 12 L 82 12 C 85.335938 12 88 14.664062 88 18 L 88 82 C 88 85.335938 85.335938 88 82 88 L 18 88 C 14.664062 88 12 85.335938 12 82 L 12 18 C 12 14.664062 14.664062 12 18 12 Z M 46.792969 31.984375 C 44.679688 31.980469 42.792969 32.097656 41.105469 32.925781 C 41.105469 32.925781 41.101562 32.929688 41.101562 32.929688 C 40.277344 33.335938 39.699219 33.847656 39.238281 34.460938 C 39.007812 34.765625 38.769531 35.042969 38.644531 35.738281 C 38.582031 36.085938 38.546875 36.652344 38.910156 37.261719 C 39.273438 37.871094 40.007812 38.21875 40.476562 38.28125 C 40.800781 38.324219 41.539062 38.636719 41.605469 38.730469 C 41.605469 38.734375 41.609375 38.734375 41.609375 38.738281 C 41.609375 38.738281 41.894531 39.480469 41.976562 40.144531 C 42.058594 40.808594 42.054688 41.34375 42.054688 41.34375 C 42.054688 41.398438 42.054688 41.449219 42.058594 41.503906 C 42.058594 41.503906 42.175781 43.238281 42.097656 45.03125 C 42.066406 45.746094 41.976562 46.382812 41.878906 46.949219 C 41.167969 46.164062 40.117188 44.738281 38.601562 42.113281 C 36.921875 39.199219 35.582031 36.585938 35.582031 36.585938 C 35.511719 36.359375 35.261719 35.648438 34.292969 34.9375 C 33.230469 34.15625 32.207031 34.039062 32.207031 34.039062 C 32.078125 34.011719 31.949219 34 31.816406 34 L 23.933594 34.003906 C 23.933594 34.003906 23.460938 33.976562 22.894531 34.054688 C 22.328125 34.132812 21.476562 34.195312 20.652344 35.171875 C 20.652344 35.171875 20.648438 35.175781 20.648438 35.175781 C 19.914062 36.054688 19.957031 37.027344 20.046875 37.574219 C 20.136719 38.121094 20.335938 38.539062 20.335938 38.539062 C 20.339844 38.546875 20.34375 38.554688 20.347656 38.5625 C 20.347656 38.5625 26.796875 52.117188 34.082031 60.101562 C 39.375 65.898438 44.804688 65.996094 49.285156 65.996094 L 52.628906 65.996094 C 53.484375 65.996094 54.253906 65.960938 55.109375 65.464844 C 55.964844 64.96875 56.539062 63.753906 56.539062 62.914062 C 56.539062 62.03125 56.671875 61.339844 56.832031 60.984375 C 56.945312 60.734375 57.035156 60.644531 57.175781 60.570312 C 57.207031 60.589844 57.1875 60.578125 57.269531 60.636719 C 57.601562 60.871094 58.152344 61.40625 58.75 62.070312 C 59.945312 63.402344 61.300781 65.226562 63.125 66.480469 C 64.429688 67.378906 65.664062 67.777344 66.601562 67.921875 C 67.1875 68.011719 67.644531 67.996094 67.96875 67.96875 L 75.4375 68 C 75.480469 68 75.527344 68 75.570312 67.996094 C 75.570312 67.996094 76.855469 68.011719 78.195312 67.210938 C 78.863281 66.8125 79.652344 66.050781 79.910156 64.945312 C 80.167969 63.839844 79.84375 62.691406 79.214844 61.644531 C 79.214844 61.644531 79.214844 61.640625 79.214844 61.640625 C 79.324219 61.820312 79.117188 61.449219 78.902344 61.101562 C 78.6875 60.753906 78.378906 60.285156 77.933594 59.703125 C 77.042969 58.539062 75.617188 56.910156 73.3125 54.765625 C 73.3125 54.765625 73.308594 54.765625 73.308594 54.765625 C 72.136719 53.675781 71.347656 52.90625 71.023438 52.476562 C 70.699219 52.046875 70.804688 52.273438 70.828125 52.164062 C 70.871094 51.945312 72.277344 49.917969 75.136719 46.101562 C 76.875 43.777344 78.09375 42.03125 78.898438 40.582031 C 79.703125 39.132812 80.28125 37.875 79.878906 36.335938 C 79.878906 36.332031 79.875 36.332031 79.875 36.328125 C 79.695312 35.652344 79.207031 35.03125 78.703125 34.691406 C 78.199219 34.351562 77.722656 34.21875 77.296875 34.136719 C 76.445312 33.972656 75.699219 34 75.007812 34 C 73.558594 34 67.128906 34.050781 66.597656 34.050781 C 65.972656 34.050781 64.9375 34.335938 64.480469 34.609375 C 63.332031 35.300781 63 36.210938 63 36.210938 C 62.980469 36.25 62.960938 36.289062 62.941406 36.328125 C 62.941406 36.328125 61.613281 39.269531 59.90625 42.175781 C 58.175781 45.125 56.898438 46.527344 56.125 47.179688 C 56.105469 47.0625 56.105469 47.15625 56.09375 46.996094 C 56.023438 46.171875 56.101562 45.035156 56.101562 43.925781 C 56.101562 40.9375 56.355469 38.84375 56.21875 36.996094 C 56.152344 36.070312 55.980469 35.117188 55.371094 34.242188 C 54.761719 33.367188 53.75 32.796875 52.75 32.554688 C 52.148438 32.410156 51.464844 32.035156 48.988281 32.007812 C 48.988281 32.007812 48.984375 32.007812 48.984375 32.007812 C 48.226562 32 47.496094 31.984375 46.792969 31.984375 Z M 48.945312 36.007812 C 51.136719 36.03125 50.589844 36.152344 51.808594 36.445312 C 52.1875 36.535156 52.09375 36.535156 52.085938 36.523438 C 52.078125 36.511719 52.1875 36.71875 52.230469 37.292969 C 52.316406 38.445312 52.101562 40.734375 52.101562 43.925781 C 52.101562 44.796875 51.996094 46.039062 52.105469 47.332031 C 52.214844 48.625 52.535156 50.289062 54.082031 51.289062 C 54.816406 51.765625 55.667969 51.792969 56.394531 51.613281 C 57.121094 51.433594 57.78125 51.054688 58.476562 50.5 C 59.863281 49.390625 61.410156 47.515625 63.355469 44.203125 C 65.171875 41.113281 66.496094 38.167969 66.539062 38.070312 C 66.546875 38.0625 66.554688 38.058594 66.566406 38.050781 C 66.589844 38.050781 66.566406 38.050781 66.597656 38.050781 C 67.34375 38.050781 73.65625 38 75.007812 38 C 75.324219 38 75.4375 38.019531 75.6875 38.027344 C 75.621094 38.253906 75.695312 38.109375 75.398438 38.644531 C 74.777344 39.765625 73.628906 41.433594 71.933594 43.703125 C 69.144531 47.425781 67.417969 48.882812 66.910156 51.355469 C 66.65625 52.589844 67.132812 53.960938 67.832031 54.886719 C 68.53125 55.8125 69.414062 56.605469 70.585938 57.695312 C 72.753906 59.714844 74.027344 61.183594 74.757812 62.136719 C 75.121094 62.613281 75.351562 62.957031 75.496094 63.191406 C 75.640625 63.425781 75.605469 63.398438 75.789062 63.707031 C 75.910156 63.910156 75.867188 63.785156 75.886719 63.847656 C 75.648438 63.914062 75.355469 63.996094 75.339844 64 L 67.984375 63.96875 C 67.851562 63.96875 67.71875 63.980469 67.589844 64.007812 C 67.589844 64.007812 67.609375 64.03125 67.214844 63.96875 C 66.820312 63.90625 66.195312 63.738281 65.390625 63.183594 C 64.417969 62.515625 63.058594 60.882812 61.726562 59.398438 C 61.058594 58.65625 60.394531 57.945312 59.570312 57.363281 C 58.746094 56.78125 57.507812 56.238281 56.175781 56.65625 C 54.792969 57.089844 53.714844 58.171875 53.1875 59.332031 C 52.796875 60.195312 52.765625 61.097656 52.703125 61.996094 C 52.636719 62 52.714844 61.996094 52.628906 61.996094 L 49.285156 61.996094 C 44.742188 61.996094 41.515625 62.308594 37.035156 57.402344 C 31.007812 50.800781 25.484375 39.8125 24.585938 38.003906 L 31.523438 38 C 31.644531 38.046875 31.90625 38.144531 31.921875 38.15625 C 31.925781 38.160156 31.925781 38.160156 31.929688 38.164062 C 31.675781 37.980469 31.941406 38.238281 31.941406 38.238281 C 31.964844 38.296875 31.992188 38.355469 32.023438 38.414062 C 32.023438 38.414062 33.398438 41.101562 35.136719 44.113281 C 36.84375 47.066406 38.085938 48.914062 39.285156 50.132812 C 39.886719 50.742188 40.492188 51.230469 41.300781 51.507812 C 42.109375 51.785156 43.15625 51.683594 43.859375 51.296875 C 45.296875 50.511719 45.488281 49.351562 45.722656 48.335938 C 45.957031 47.320312 46.050781 46.238281 46.09375 45.203125 C 46.179688 43.195312 46.058594 41.453125 46.050781 41.347656 C 46.050781 41.308594 46.058594 40.585938 45.945312 39.65625 C 45.828125 38.707031 45.695312 37.542969 44.835938 36.371094 L 44.832031 36.367188 C 44.824219 36.359375 44.820312 36.359375 44.8125 36.351562 C 45.949219 36.1875 46.921875 35.988281 48.945312 36.007812 Z M 66.589844 37.96875 L 66.5625 38.03125 C 66.558594 38.035156 66.558594 38.027344 66.554688 38.03125 C 66.5625 38.015625 66.589844 37.96875 66.589844 37.96875 Z M 66.589844 37.96875 "/>
</g>
</svg>
